<svg version="1.2" xmlns="http://www.w3.org/2000/svg" viewBox="0 0 23 21" width="23" height="21"><defs><linearGradient id="P" gradientUnits="userSpaceOnUse"/><linearGradient id="g1" x2="1" href="#P" gradientTransform="matrix(0,12.976,-15.052,0,12.991,4.411)"><stop stop-color="#ffad97"/><stop offset="1" stop-color="#ff5b2e"/></linearGradient><linearGradient id="g2" x2="1" href="#P" gradientTransform="matrix(0,3.374,-18.166,0,12.991,1.297)"><stop stop-color="#ffad97"/><stop offset="1" stop-color="#ff5b2e"/></linearGradient><linearGradient id="g3" x2="1" href="#P" gradientTransform="matrix(0,-2.076,2.076,0,18.701,2.076)"><stop stop-color="#ffad97"/><stop offset="1" stop-color="#ff5b2e"/></linearGradient><linearGradient id="g4" x2="1" href="#P" gradientTransform="matrix(0,7.024,-7.493,0,5.49,12.976)"><stop stop-color="#ff9071"/><stop offset="1" stop-color="#ff5b2e"/></linearGradient></defs><style>.a{fill:url(#g1)}.b{fill:url(#g2)}.c{fill:url(#g3)}.d{fill:#fffaf5}.e{fill:url(#g4)}.f{fill:none;stroke:#fff;stroke-linecap:round;stroke-linejoin:round;stroke-width:.5}</style><path class="a" d="m5.5 4.4h15v13h-15z"/><path class="b" d="m4.9 1.3h16.1l1.1 3.4h-18.2z"/><path class="c" d="m17.7 2.1h2v-2.1h-2z"/><path class="d" d="m7.5 6.2h1.6c0.3 0 0.5 0.3 0.5 0.5v1.6c0 0.3-0.2 0.5-0.5 0.5h-1.6c-0.3 0-0.5-0.2-0.5-0.5v-1.6c0-0.2 0.2-0.5 0.5-0.5z"/><path class="d" d="m7.5 11.4h1.6c0.3 0 0.5 0.2 0.5 0.5v1.6c0 0.3-0.2 0.5-0.5 0.5h-1.6c-0.3 0-0.5-0.2-0.5-0.5v-1.6c0-0.3 0.2-0.5 0.5-0.5z"/><path class="d" d="m12.2 6.2h1.6c0.3 0 0.5 0.3 0.5 0.5v1.6c0 0.3-0.2 0.5-0.5 0.5h-1.6c-0.3 0-0.5-0.2-0.5-0.5v-1.6c0-0.2 0.2-0.5 0.5-0.5z"/><path class="d" d="m12.2 11.4h1.6c0.3 0 0.5 0.2 0.5 0.5v1.6c0 0.3-0.2 0.5-0.5 0.5h-1.6c-0.3 0-0.5-0.2-0.5-0.5v-1.6c0-0.3 0.2-0.5 0.5-0.5z"/><path class="d" d="m16.9 6.2h1.6c0.2 0 0.5 0.3 0.5 0.5v1.6c0 0.3-0.3 0.5-0.5 0.5h-1.6c-0.3 0-0.5-0.2-0.5-0.5v-1.6c0-0.2 0.2-0.5 0.5-0.5z"/><path class="d" d="m16.9 11.4h1.6c0.2 0 0.5 0.2 0.5 0.5v1.6c0 0.3-0.3 0.5-0.5 0.5h-1.6c-0.3 0-0.5-0.2-0.5-0.5v-1.6c0-0.3 0.2-0.5 0.5-0.5z"/><path fill-rule="evenodd" class="e" d="m5.5 13.6c2.1-2.1 7.3 1.6 0 6.4-7.3-4.8-2.1-8.5 0-6.4z"/><path class="f" d="m1.1 16.9h1.4l0.6-1.2 1 2.4 0.9-1.8 0.8 0.6 0.8-2.1 1 2.6 0.4-0.5h1.9"/></svg>